<svg xmlns="http://www.w3.org/2000/svg" width="27.496" height="18.331"><defs><style>.cls-1{fill:#f0f0f0}.cls-2{fill:#d80027}.cls-3{fill:#0052b4}</style></defs><g id="united-kingdom" transform="translate(0 -85.33)"><path id="Rectangle_18" d="M0 0h27.496v18.331H0z" class="cls-1" data-name="Rectangle 18" transform="translate(0 85.33)"/><path id="Path_141" d="M15.466 85.33h-3.437v7.447H0v3.437h12.029v7.447h3.437v-7.447H27.5v-3.437H15.466z" class="cls-2" data-name="Path 141"/><g id="Group_62" data-name="Group 62" transform="translate(16.736 97.683)"><path id="Path_142" d="M393.785 315.358l6.348 3.527v-3.527z" class="cls-3" data-name="Path 142" transform="translate(-389.374 -315.358)"/><path id="Path_143" d="M311.652 315.358l10.759 5.977v-1.69l-7.717-4.287z" class="cls-3" data-name="Path 143" transform="translate(-311.652 -315.358)"/><path id="Path_144" d="M319.545 349.384L311.652 345v4.386z" class="cls-3" data-name="Path 144" transform="translate(-311.652 -343.406)"/></g><path id="Path_145" d="M311.652 315.358l10.759 5.977v-1.69l-7.717-4.287z" class="cls-1" data-name="Path 145" transform="translate(-294.916 -217.675)"/><path id="Path_146" d="M311.652 315.358l10.759 5.977v-1.69l-7.717-4.287z" class="cls-2" data-name="Path 146" transform="translate(-294.916 -217.675)"/><g id="Group_63" data-name="Group 63" transform="translate(0 97.683)"><path id="Path_147" d="M4.852 315.356L0 318.051v-2.7z" class="cls-3" data-name="Path 147" transform="translate(0 -315.356)"/><path id="Path_148" d="M34.881 329.51v5.217h-9.39z" class="cls-3" data-name="Path 148" transform="translate(-24.122 -328.75)"/></g><path id="Path_149" d="M7.717 315.358L0 319.645v1.69l10.759-5.977z" class="cls-2" data-name="Path 149" transform="translate(0 -217.675)"/><g id="Group_64" data-name="Group 64" transform="translate(0 85.33)"><path id="Path_150" d="M6.348 134.485L0 130.958v3.527z" class="cls-3" data-name="Path 150" transform="translate(0 -128.508)"/><path id="Path_151" d="M10.759 91.307L0 85.33v1.69l7.717 4.287z" class="cls-3" data-name="Path 151" transform="translate(0 -85.33)"/><path id="Path_152" d="M53.366 85.33l7.893 4.386V85.33z" class="cls-3" data-name="Path 152" transform="translate(-50.5 -85.33)"/></g><path id="Path_153" d="M10.759 91.307L0 85.33v1.69l7.717 4.287z" class="cls-1" data-name="Path 153"/><path id="Path_154" d="M10.759 91.307L0 85.33v1.69l7.717 4.287z" class="cls-2" data-name="Path 154"/><g id="Group_65" data-name="Group 65" transform="translate(16.736 85.33)"><path id="Path_155" d="M421.659 149.141l4.852-2.7v2.7z" class="cls-3" data-name="Path 155" transform="translate(-415.751 -143.164)"/><path id="Path_156" d="M311.652 90.548v-5.217h9.39z" class="cls-3" data-name="Path 156" transform="translate(-311.652 -85.331)"/></g><path id="Path_157" d="M314.695 91.307l7.717-4.287v-1.69l-10.759 5.977z" class="cls-2" data-name="Path 157" transform="translate(-294.916)"/></g></svg>