<svg xmlns="http://www.w3.org/2000/svg" width="222.363" height="98.362"><defs><clipPath id="clip-path"><path id="Rectangle_9" d="M0 0h222.363v98.362H0z" data-name="Rectangle 9" fill="none"/></clipPath><style>.cls-3{fill:#b71e3f}.cls-4{fill:#cdb794}</style></defs><g clip-path="url(#clip-path)"><path id="Path_44" d="M39.476 38.584l-1.125-3.1-2.344-6.184c-1.687-4.5-3.407-9-3.475-9.114l-.152-.444a.461.461 0 01.219-.264 12.96 12.96 0 011.653.59 19.174 19.174 0 001.945.624 2.322 2.322 0 011.687 1.125 2.811 2.811 0 01.225 1.507 3.212 3.212 0 013.514-1.974c2.019.253 2.811 2.98 1.687 4.088-.36.427-1.158 1.181-.371 1.636a.692.692 0 00.354 0 2.047 2.047 0 01-.214.613 1.623 1.623 0 01-2.547.118 1.445 1.445 0 01-.247-1.327L40.4 26c0-.3-.394-.484-.787-.371-.146.056-.45.287-.5 1.158-.155 2.16 1.167 4.988 4.087 4.213 1.468-.365 1.861-.928 1.895-1.749a1.642 1.642 0 01-1.121-1.551 1.546 1.546 0 011.526-1.637 1.636 1.636 0 011.074 2.884c.343.793.776 1.237 2.345 1.125 3.019-.27 3.374-3.4 2.5-5.375-.354-.81-.725-.916-.877-.911-.4 0-.7.332-.607.613l.276.41a1.434 1.434 0 01.225 1.327c-.332 1.259-1.889 1.158-2.435.765a1.754 1.754 0 01-.416-.562s.287 0 .332-.107c.562-.7-.433-1.125-.916-1.411-1.456-.658-1.619-3.492.2-4.414a2.941 2.941 0 013.531.337 1.8 1.8 0 01.276.27c-.062-.141-.084-.163-.157-.309a1.614 1.614 0 01-.174-.534 2.811 2.811 0 01.281-1.743 10.83 10.83 0 01.967-1.243 7.309 7.309 0 001.125-1.9c.056-.1.174-.439.264-.489a.214.214 0 01.129-.045.236.236 0 01.135.045c.09.051.208.394.264.489a7.174 7.174 0 001.125 1.9 10.828 10.828 0 01.967 1.243 2.811 2.811 0 01.266 1.742 1.394 1.394 0 01-.174.534c-.067.146-.09.169-.152.309a1.529 1.529 0 01.27-.27 2.95 2.95 0 013.537-.337c1.816.922 1.653 3.756.191 4.414-.478.281-1.5.714-.916 1.411.051.1.337.107.337.107a1.861 1.861 0 01-.416.562c-.562.394-2.1.495-2.44-.765a1.468 1.468 0 01.225-1.327l.276-.41c.09-.281-.2-.562-.6-.613-.152 0-.529.1-.877.911-.888 1.974-.523 5.105 2.491 5.375 1.574.135 2.007-.309 2.345-1.091a1.636 1.636 0 011.046-2.9 1.546 1.546 0 011.524 1.636 1.642 1.642 0 01-1.125 1.552c.056.815.444 1.372 1.917 1.765 2.929.776 4.251-2.052 4.093-4.211-.051-.872-.354-1.125-.506-1.158-.388-.112-.776.073-.787.371l.118.478a1.439 1.439 0 01-.242 1.3c-.742 1.063-2.17.439-2.553-.118a2.249 2.249 0 01-.214-.613.714.714 0 00.36 0c.787-.455 0-1.209-.371-1.636-1.158-1.125-.337-3.835 1.687-4.088a3.243 3.243 0 013.509 1.974 2.873 2.873 0 01.242-1.5 2.345 2.345 0 011.687-1.125 19.644 19.644 0 001.974-.63A13.355 13.355 0 0174.3 19.5a.455.455 0 01.225.264l-.152.444c-.073.146-1.782 4.644-3.48 9.114l-2.343 6.187-1.125 3.1z" class="cls-3" data-name="Path 44" transform="translate(-14.174 -6.457)"/><path id="Path_45" d="M40.185 38.659c-.034-.039-6.747-17.728-6.865-17.992a19.876 19.876 0 003.149 1.125 1.906 1.906 0 011.434.922 2.519 2.519 0 01.157 1.653.382.382 0 00.63.129c.472-.827 1.164-2.378 3.239-2.069 1.687.208 2.294 2.525 1.417 3.329-.32.388-1.535 1.574-.27 2.305-.3.444-1.338.8-1.81.118-.343-.562-.253-.624-.051-1.5.045-.855-.928-.961-1.344-.838s-.753.562-.815 1.541c-.163 2.2 1.361 5.544 4.768 4.667 1.906-.512 2.092-1.439 2.108-2.581a1.2 1.2 0 11.562-.118 2.44 2.44 0 00.135.388c.394.905.973 1.546 2.738 1.389 3.5-.315 3.773-4 2.868-6.027-.382-.883-.877-1.17-1.288-1.17s-1.31.461-.978 1.254c.489.742.6.787.461 1.417-.214.8-1.3.821-1.737.506.939-1.125-.607-1.822-1.04-2.075-1.125-.455-1.333-2.811.191-3.61 1.844-1 3.025.225 3.75.838a.382.382 0 00.562-.337c-.186-.3-.6-.708-.613-1.186a2.294 2.294 0 01.219-1.451 14.633 14.633 0 002.092-3.149 14.252 14.252 0 002.086 3.149 2.294 2.294 0 01.219 1.451c0 .478-.427.888-.613 1.186a.391.391 0 00.562.337c.731-.613 1.912-1.839 3.756-.838 1.524.776 1.293 3.154.191 3.61-.433.253-1.979.961-1.04 2.075-.439.315-1.529.292-1.743-.506-.141-.63-.028-.675.467-1.417.332-.793-.562-1.226-.978-1.254s-.905.287-1.293 1.17c-.905 2.024-.63 5.713 2.868 6.027 1.766.157 2.339-.484 2.738-1.389.039-.107.107-.276.135-.388a1.181 1.181 0 11.562.118c0 1.125.2 2.069 2.108 2.581 3.374.9 4.914-2.468 4.757-4.684-.062-.961-.422-1.417-.815-1.541s-1.389 0-1.349.838c.208.872.3.956-.051 1.5-.472.68-1.5.326-1.8-.118 1.265-.731.051-1.917-.27-2.305-.877-.8-.281-3.121 1.417-3.329 2.075-.309 2.761 1.243 3.239 2.069a.382.382 0 00.63-.129 2.485 2.485 0 01.157-1.653 1.9 1.9 0 011.434-.922 19.876 19.876 0 003.149-1.125c-.141.281-6.831 17.992-6.865 17.992z" class="cls-4" data-name="Path 45" transform="translate(-14.585 -7.065)"/><path id="Path_46" d="M74.561 88.09a22.978 22.978 0 11-45.956 0V60.68h45.951z" data-name="Path 46" transform="translate(-12.522 -26.562)" fill-rule="evenodd" fill="#b71e3f"/><path id="Path_47" d="M37.6 70.755s-.478 1.411-.219 1.822a1.546 1.546 0 001.125.855c.967.264 2-.208 3.312.118a8.08 8.08 0 012.564 1.271.506.506 0 01-.219.214 1.434 1.434 0 01-.905.27s-.174-.692-1.732-1.186a23.658 23.658 0 00-3.059-.174 2.249 2.249 0 01-1.687-1.288c-.225-.467-.737-1.782-.737-1.782l.163-.382.7 1.574.056-.281.326-1.344z" class="cls-4" data-name="Path 47" transform="translate(-15.776 -30.834)"/><path id="Path_48" d="M54.608 77.267c.759.287 5.392 1.642 9.424 2.935 2.412.77 3.9 1.507 3.61 3.014-.3 1.619-2.086 1.484-3.643 1.057-.174 0-2.446-.737-4.785-1.5v4.194c2.058.562 4.346 1.181 5.454 1.4 4.5.877 6.747-1.642 7.309-4.38a5.684 5.684 0 00-1.969-5.487c-2.148-1.782-7.056-3.194-10.019-4.1-1.085-.326-6.044-1.636-6.309-1.687a6.651 6.651 0 01-2.249-1.192 10.52 10.52 0 00-3.407-1.366 11.886 11.886 0 00-3.778-.562c-.433 0-1.338-.332-1.889.062a1.636 1.636 0 00-.281 1.546 2.316 2.316 0 00.787.961c0-1.2 1.76-.377 2.176.062a10.755 10.755 0 002.161 1.243c.467.259.214 1.186-.118 1.434-1.046.776-2.851-.382-3.643-.652a1 1 0 00-.86.247 3.019 3.019 0 00.855.562c.382.208 1.619.725 2 .86.079 0 4.38 1.271 5.33.32a18.858 18.858 0 013.88 1.006" class="cls-4" data-name="Path 48" transform="translate(-18.381 -30.409)"/><path id="Path_49" d="M65.466 100.406c-1.822-.63-3.424-1.029-6.444-1.923-1.687-.495-5.881-1.827-6.888-2.317-.821-.4-2.345-1.125-1.929-2.547s2.03-1.248 3.587-.647c.849.332 2.4.855 4.076 1.473v-4l-.6-.2a24.5 24.5 0 00-5.623-1.591 5.544 5.544 0 00-3.936 1.2 5.206 5.206 0 00-1.687 3.171 6.251 6.251 0 002.879 5.836c2.53 1.726 6.483 2.513 10.166 3.627 2.755.838 3.9 1.125 5.156 1.524 1.619.489 2.974 1.327 2.811 2.615-.281 2.328-3.25 1.186-4.048.933-.562-.169-1.231-.332-2.153-.658v3.745c1.473.444 2.345.669 3.582.99a5.218 5.218 0 006.37-4.155 6.022 6.022 0 00-.945-4.459c-1.029-1.406-3.109-2.187-4.374-2.62m-2.215 14.439a20.73 20.73 0 00-4.419-1.355c-1.687-.422-3.137-.737-4.346-1.175-1.687-.6-2.558-1.17-2.5-2.468s1.647-1.468 3.5-.978c.624.169 1.6.529 2.418.725 0-1.259.039-2.21.034-3.464-1.423-.5-2.058-.77-2.721-.922-3.5-.81-5.7 1.125-6.185 3.553-.562 2.311 1.2 4.869 4.341 5.594 1.827.422 2.39.472 4.807.933 1.125.214 2.811.388 4.015.737a14.444 14.444 0 012.811 1.08c.455.253 1.091.562 1-.231-.056-.455-1.3-1.321-2.738-2.03" class="cls-4" data-name="Path 49" transform="translate(-20.12 -38.799)"/><path id="Path_50" d="M67.025 87.1l2.165.613.079-10.863-2.294-.65zm.067 15.181l2.019.461.067-9.952-2.12-.663zm.045 8.164a1.974 1.974 0 001.006.292 1.928 1.928 0 00.95-.292v-4.909l-2-.259zm.963-46.02a2.249 2.249 0 00-2.25 2.035 2.035 2.035 0 001.125 1.81v2.463l2.333.585v-3.087a2.035 2.035 0 001.057-1.816 2.228 2.228 0 00-2.249-2.035" class="cls-4" data-name="Path 50" transform="translate(-28.825 -28.182)"/><path id="Path_51" d="M49.974 72.179a1.04 1.04 0 01-.8.506 1.063 1.063 0 01-.978-.562 1.288 1.288 0 01-.039-.7c-.276-.124-.382-.3-.309-.455l.472.124a1.878 1.878 0 011.68.66 3.828 3.828 0 00.529.332c-.2.382-.562.039-.562.073" class="cls-3" data-name="Path 51" transform="translate(-20.933 -31.066)"/><path id="Path_52" d="M50.252 72.121s-.315-.146-.309-.062a.928.928 0 01-.343.748.607.607 0 00.264.034 1.057 1.057 0 00.562-.607z" class="cls-4" data-name="Path 52" transform="translate(-21.712 -31.532)"/><path id="Path_53" d="M128.8 70.514c-.214-.1-.253-.157-.253-.45 0-.737.051-1.535.067-1.749s.051-.349.157-.349.135.124.135.231a3.149 3.149 0 00.118.68 1.844 1.844 0 001.906 1.344 1.619 1.619 0 001.788-1.518c0-.652-.2-1.271-1.3-2.137l-.613-.478c-1.467-1.125-1.974-2.08-1.974-3.16 0-1.462 1.226-2.519 3.076-2.519a6.657 6.657 0 011.777.225.166.166 0 01.186.163c0 .09-.056.562-.056 1.6 0 .3-.039.4-.146.4s-.129-.084-.129-.242a1.631 1.631 0 00-.349-.883 1.687 1.687 0 00-1.456-.652 1.4 1.4 0 00-1.586 1.372c0 .618.309 1.085 1.417 1.923l.371.281c1.614 1.209 2.187 2.131 2.187 3.374a2.688 2.688 0 01-1.243 2.328 3.885 3.885 0 01-2.12.562 4.627 4.627 0 01-1.945-.349" class="cls-3" data-name="Path 53" transform="translate(-56.271 -26.444)"/><path id="Path_54" d="M148.864 69.975c1.361 0 1.878-.332 2.092-.731a2.677 2.677 0 00.242-.641c0-.135.051-.214.129-.214s.135.1.135.41a8.746 8.746 0 01-.264 1.631c-.067.236-.163.343-.4.343-2.221 0-4.464-.062-7.152-.062-.152 0-.231-.045-.231-.135s.039-.163.2-.4c1.878-2.935 3.852-5.943 5.623-8.76h-2.609a4.543 4.543 0 00-1.917.281 1.518 1.518 0 00-.725 1.04c0 .186-.079.242-.157.242s-.107-.067-.107-.231c0-.3.2-1.518.264-1.917.028-.186.084-.253.163-.253a3.666 3.666 0 00.534.09c1.265.056 1.906.039 2.451.039h4.065c.135 0 .225.045.225.112a.562.562 0 01-.107.253c-1.839 2.986-3.863 6.033-5.741 8.9z" class="cls-3" data-name="Path 54" transform="translate(-62.776 -26.518)"/><path id="Path_55" d="M163.49 64.621V61.81a.66.66 0 00-.562-.759 3.2 3.2 0 00-.523-.039c-.146 0-.225-.028-.225-.118s.09-.124.292-.124c.708 0 1.546.045 1.917.045.562 0 1.321-.045 1.934-.045a3.226 3.226 0 012.48.765 2.305 2.305 0 01.669 1.586 3.143 3.143 0 01-3.284 3.227 1.541 1.541 0 01-.275 0c-.067 0-.163 0-.163-.118s.1-.146.377-.146a2.1 2.1 0 001.782-2.2 2.564 2.564 0 00-.787-2 1.973 1.973 0 00-1.333-.517 1.911 1.911 0 00-.517.051c-.067 0-.107.107-.107.253V67c0 1.226 0 2.249.067 2.856.039.371.118.663.517.714a5.459 5.459 0 00.68.056c.146 0 .214.039.214.107s-.107.135-.253.135c-.877 0-1.721-.039-2.064-.039s-1.124.039-1.687.039c-.174 0-.264-.039-.264-.135s.051-.107.208-.107a2.075 2.075 0 00.484-.056c.264-.051.332-.343.388-.731.062-.562.062-1.614.062-2.811z" class="cls-3" data-name="Path 55" transform="translate(-70.992 -26.601)"/><path id="Path_56" d="M180.931 64.621V61.81c0-.41-.157-.675-.45-.742a1.918 1.918 0 00-.478-.056c-.135 0-.214-.028-.214-.129s.107-.112.315-.112c.512 0 1.349.045 1.737.045s1.125-.045 1.625-.045c.174 0 .281 0 .281.112s-.084.129-.214.129a2.659 2.659 0 00-.4.039c-.36.067-.472.3-.495.759s-.028.8-.028 2.811v2.345c0 1.293 0 2.345.051 2.918.045.36.135.6.562.652a5.459 5.459 0 00.68.056c.146 0 .214.039.214.107s-.107.135-.253.135c-.877 0-1.721-.039-2.08-.039s-1.125.039-1.687.039c-.174 0-.27-.039-.27-.135s.056-.107.214-.107a2.114 2.114 0 00.484-.056c.264-.051.343-.275.382-.663.067-.562.067-1.614.067-2.907z" class="cls-3" data-name="Path 56" transform="translate(-78.701 -26.601)"/><path id="Path_57" d="M194.533 61.343l-1.985.056c-.776 0-1.1.09-1.293.388a1.568 1.568 0 00-.231.467.142.142 0 01-.146.157c-.084 0-.118-.067-.118-.214s.253-1.428.281-1.535.079-.253.157-.253a3.171 3.171 0 00.562.163c.388.039.894.062 1.333.062h5.28a7.353 7.353 0 00.956-.062 3.19 3.19 0 01.36-.067c.09 0 .107.079.107.281s-.045 1.2-.045 1.546c0 .129-.039.214-.118.214s-.135-.067-.146-.27v-.146c-.028-.343-.388-.72-1.574-.748l-1.687-.039v5.465c0 1.226 0 2.249.067 2.856.039.371.118.663.517.714a5.46 5.46 0 00.68.056c.152 0 .214.039.214.107s-.107.135-.253.135c-.877 0-1.715-.045-2.092-.045s-1.125.045-1.687.045c-.169 0-.264-.045-.264-.135s.056-.107.214-.107a2.019 2.019 0 00.478-.056c.27-.051.349-.343.388-.731.067-.562.067-1.614.067-2.811z" class="cls-3" data-name="Path 57" transform="translate(-83.503 -26.444)"/><path id="Path_58" d="M209.688 67.14c-.067 0-.09 0-.118.107l-.7 1.906a2.5 2.5 0 00-.2.815c0 .236.118.41.529.41h.2c.157 0 .2.028.2.107s-.079.135-.225.135c-.427 0-1-.039-1.411-.039-.146 0-.883.039-1.574.039-.174 0-.253 0-.253-.135s.056-.107.163-.107h.41c.613-.079.866-.562 1.125-1.2l3.34-8.372c.163-.382.242-.529.377-.529s.2.118.332.422c.32.737 2.451 6.185 3.306 8.2.506 1.2.894 1.389 1.175 1.456a3.463 3.463 0 00.562.051c.107 0 .174 0 .174.107s-.118.135-.613.135h-2.519c-.242 0-.4 0-.4-.107s.051-.107.186-.124a.208.208 0 00.118-.3l-1.058-2.817a.129.129 0 00-.135-.1zm2.721-.669c.067 0 .079-.039.067-.079l-1.2-3.289c0-.056 0-.118-.067-.118s-.062.062-.079.118l-1.23 3.278c0 .051 0 .09.056.09z" class="cls-3" data-name="Path 58" transform="translate(-90.235 -26.387)"/><path id="Path_59" d="M230.594 66.97c0 1.687 0 2.626.281 2.868s.562.292 1.614.292c.708 0 1.226 0 1.557-.371a1.686 1.686 0 00.349-.8c0-.118.039-.2.146-.2s.107.067.107.225a10.6 10.6 0 01-.2 1.535c-.079.292-.146.36-.838.36-.961 0-1.653 0-2.249-.039s-1.08-.039-1.625-.039h-1.676c-.174 0-.27-.039-.27-.135s.056-.107.214-.107a2.428 2.428 0 00.478-.051c.27-.056.337-.349.388-.737.067-.562.067-1.614.067-2.811v-5.145a.656.656 0 00-.562-.759 2.2 2.2 0 00-.439-.039c-.146 0-.225-.028-.225-.118s.09-.118.292-.118c.624 0 1.468.039 1.827.039s1.293-.039 1.81-.039c.186 0 .281 0 .281.118s-.079.118-.242.118a4.159 4.159 0 00-.517.039c-.36.067-.467.3-.495.759s0 .8 0 2.811z" class="cls-3" data-name="Path 59" transform="translate(-99.677 -26.606)"/><path id="Path_60" d="M128.268 96c0-2.03 0-2.4-.028-2.811s-.135-.669-.562-.759a2.637 2.637 0 00-.523-.039c-.146 0-.225-.028-.225-.124s.1-.118.292-.118c.708 0 1.546.039 1.945.039s1.164-.039 1.642-.039c.2 0 .292 0 .292.118s-.079.124-.214.124a1.933 1.933 0 00-.388.039c-.36.068-.467.292-.489.759s0 .8 0 2.811v1.861c0 1.934.388 2.749 1.04 3.284a2.491 2.491 0 001.687.562 2.631 2.631 0 001.839-.72c.737-.737.776-1.934.776-3.306V96c0-2.03 0-2.4-.028-2.811s-.135-.669-.562-.759a2.451 2.451 0 00-.478-.039c-.146 0-.231-.028-.231-.124s.1-.118.281-.118c.68 0 1.518.039 1.535.039.157 0 1-.039 1.518-.039.186 0 .281 0 .281.118s-.079.124-.242.124a1.933 1.933 0 00-.388.039c-.36.068-.467.292-.489.759s0 .8 0 2.811v1.423c0 1.479-.146 3.053-1.265 4.015a3.992 3.992 0 01-2.772.956 4.3 4.3 0 01-2.963-.916c-.675-.613-1.181-1.6-1.181-3.531z" class="cls-3" data-name="Path 60" transform="translate(-55.562 -40.338)"/><path id="Path_61" d="M151.835 100.218c.028 1.04.2 1.383.467 1.479a2.137 2.137 0 00.692.1c.146 0 .231 0 .231.1s-.124.135-.309.135c-.866 0-1.4-.039-1.653-.039-.118 0-.748.039-1.439.039-.174 0-.292 0-.292-.135s.079-.1.214-.1a2.53 2.53 0 00.6-.067c.343-.107.4-.495.41-1.653l.118-7.872c0-.264.045-.45.174-.45s.27.174.495.41 2.187 2.345 4.133 4.279c.905.905 2.7 2.811 2.929 3.042h.067l-.135-5.982c0-.815-.129-1.068-.45-1.2a2.249 2.249 0 00-.708-.079c-.157 0-.214-.039-.214-.124s.146-.118.349-.118c.692 0 1.333.039 1.614.039.146 0 .652-.039 1.3-.039.174 0 .3 0 .3.118s-.079.124-.236.124a1.457 1.457 0 00-.4.039c-.377.107-.484.388-.495 1.125l-.146 8.434c0 .292-.056.416-.174.416a.855.855 0 01-.45-.3c-.843-.8-2.547-2.541-3.936-3.936s-2.929-3.109-3.171-3.374h-.039z" class="cls-3" data-name="Path 61" transform="translate(-65.455 -40.162)"/><path id="Path_62" d="M175.637 96v-2.81c0-.41-.163-.68-.455-.748a1.917 1.917 0 00-.478-.051c-.135 0-.214-.028-.214-.135s.107-.107.32-.107c.506 0 1.344.039 1.732.039s1.125-.039 1.625-.039c.174 0 .281 0 .281.107s-.079.135-.214.135a2.081 2.081 0 00-.4.039c-.36.067-.467.292-.495.759s-.028.8-.028 2.811v2.345c0 1.293 0 2.345.056 2.918.039.36.135.6.562.652a5.286 5.286 0 00.68.056c.146 0 .208.039.208.1s-.107.135-.253.135c-.877 0-1.715-.039-2.075-.039s-1.125.039-1.687.039c-.174 0-.27-.039-.27-.135s.056-.1.214-.1a2.115 2.115 0 00.484-.056c.264-.056.343-.281.388-.669.062-.562.062-1.608.062-2.9z" class="cls-3" data-name="Path 62" transform="translate(-76.381 -40.338)"/><path id="Path_63" d="M185.953 93.42a1.951 1.951 0 00-.495-.95 1.214 1.214 0 00-.534-.118c-.129 0-.214 0-.214-.124s.107-.118.3-.118c.692 0 1.423.039 1.546.039s.7-.039 1.479-.039c.186 0 .276.039.276.118s-.1.124-.236.124a.759.759 0 00-.337.051c-.118.056-.141.146-.141.292a8.1 8.1 0 00.292 1.226c.225.883 1.462 4.92 1.687 5.668h.039l2.586-6.944c.135-.377.225-.478.332-.478s.214.2.388.624l2.772 6.7h.039c.242-.894 1.3-4.408 1.771-5.971a2.733 2.733 0 00.135-.77c0-.214-.118-.4-.635-.4-.135 0-.231-.039-.231-.124s.107-.118.3-.118c.708 0 1.271.039 1.389.039s.669-.039 1.125-.039c.146 0 .242 0 .242.107s-.067.135-.191.135a1.4 1.4 0 00-.467.067c-.32.118-.461.652-.748 1.411-.613 1.687-2.007 5.921-2.66 7.917-.152.467-.214.624-.388.624s-.214-.157-.416-.652l-2.778-6.68c-.247.686-2.024 5.4-2.6 6.629-.253.562-.321.7-.478.7s-.186-.146-.309-.495z" class="cls-3" data-name="Path 63" transform="translate(-80.855 -40.32)"/><path id="Path_64" d="M215.493 95.918c0-2.03 0-2.4-.028-2.811s-.129-.669-.562-.759a2.576 2.576 0 00-.517-.039c-.146 0-.225-.028-.225-.124s.09-.118.292-.118h1.08c.349 0 .652.028.838.028h3.329a2.346 2.346 0 00.562-.079 1 1 0 01.214-.056c.067 0 .079.056.079.118a8.657 8.657 0 00-.107.871c0 .129-.039.72-.067.877a.135.135 0 01-.135.146c-.1 0-.118-.067-.118-.186a1.428 1.428 0 00-.079-.484c-.1-.236-.225-.4-.894-.478-.225 0-1.625-.051-1.889-.051-.067 0-.1.039-.1.129v3.374c0 .1 0 .146.1.146h2.134a.939.939 0 00.641-.2c.09-.107.146-.174.208-.174s.1 0 .1.107-.056.292-.107.973c0 .27-.051.8-.051.894s0 .253-.124.253a.107.107 0 01-.118-.118 2.721 2.721 0 00-.056-.484c-.062-.264-.253-.461-.742-.517-.253-.028-1.574-.039-1.895-.039-.067 0-.079.051-.079.135v3.115c0 .922.242 1.125 1.6 1.125a3.424 3.424 0 001.254-.157c.349-.163.506-.439.6-.99.028-.146.051-.2.146-.2s.107.107.107.236a10.4 10.4 0 01-.174 1.484c-.1.343-.214.343-.72.343-1 0-1.732 0-2.305-.039s-.984-.067-1.361-.067h-1.676c-.174 0-.264-.039-.264-.135s.051-.1.208-.1a2.115 2.115 0 00.484-.056c.264-.056.332-.349.382-.731.067-.562.067-1.614.067-2.811z" class="cls-3" data-name="Path 64" transform="translate(-93.746 -40.254)"/><path id="Path_65" d="M232.258 95.992c0-2.03 0-2.4-.028-2.811s-.135-.663-.562-.759a2.613 2.613 0 00-.517-.039c-.152 0-.231-.028-.231-.124s.1-.118.292-.118c.708 0 1.546.039 1.827.039.455 0 1.467-.039 1.878-.039a4.24 4.24 0 012.451.562 2.305 2.305 0 01.905 1.816c0 .984-.416 1.895-1.76 2.986 1.186 1.49 2.1 2.676 2.89 3.5a2.435 2.435 0 001.867.95c.107 0 .157.039.157.1s-.09.135-.253.135H239.9a2.676 2.676 0 01-1.428-.253 6.493 6.493 0 01-1.822-1.957c-.562-.737-1.125-1.642-1.321-1.839a.264.264 0 00-.236-.1h-1.164c-.067 0-.107 0-.107.107v.191c0 1.237 0 2.288.067 2.851.039.382.118.68.523.731a5.686 5.686 0 00.652.056c.107 0 .157.039.157.1s-.09.135-.264.135c-.776 0-1.76-.039-1.962-.039s-1.091.039-1.625.039c-.174 0-.27-.039-.27-.135s.056-.1.219-.1a2.057 2.057 0 00.478-.056c.264-.051.332-.349.388-.731.067-.562.067-1.614.067-2.811zm1.569 1.051c0 .146 0 .2.124.242a3.587 3.587 0 001.012.129 1.333 1.333 0 00.945-.225 2.35 2.35 0 00.787-2 2.13 2.13 0 00-2.041-2.435 2.952 2.952 0 00-.7.051c-.1.028-.124.079-.124.186z" class="cls-3" data-name="Path 65" transform="translate(-101.083 -40.328)"/><path id="Path_66" d="M251.113 101.884c-.208-.1-.253-.163-.253-.455 0-.731.056-1.535.067-1.743s.056-.349.163-.349.129.118.129.225a2.778 2.778 0 00.124.68 1.833 1.833 0 001.906 1.349 1.619 1.619 0 001.782-1.524c0-.652-.2-1.265-1.3-2.131l-.613-.478c-1.467-1.125-1.974-2.08-1.974-3.16 0-1.467 1.226-2.519 3.081-2.519a6.607 6.607 0 011.771.225.163.163 0 01.186.163c0 .1-.051.562-.051 1.6 0 .292-.045.4-.146.4s-.135-.079-.135-.236a1.614 1.614 0 00-.349-.883 1.687 1.687 0 00-1.451-.652 1.4 1.4 0 00-1.586 1.372c0 .613.3 1.08 1.411 1.917l.377.281c1.608 1.214 2.182 2.131 2.182 3.374a2.682 2.682 0 01-1.254 2.317 3.834 3.834 0 01-2.12.562 4.627 4.627 0 01-1.945-.343" class="cls-3" data-name="Path 66" transform="translate(-109.811 -40.175)"/><path id="Path_67" d="M267.479 98.733a2.811 2.811 0 00-.309-1.4c-.09-.214-1.878-3.143-2.345-3.835a3.323 3.323 0 00-.917-.978 1.4 1.4 0 00-.562-.169c-.107 0-.2-.028-.2-.124s.09-.118.253-.118 1.237.039 1.687.039c.281 0 .827-.039 1.428-.039.135 0 .2.039.2.118s-.09.1-.292.152a.236.236 0 00-.186.236 1.21 1.21 0 00.163.455c.186.4 2.052 3.61 2.249 3.981.129-.315 1.81-3.25 2-3.66a1.732 1.732 0 00.185-.7.32.32 0 00-.275-.332c-.124 0-.242-.051-.242-.135s.067-.118.225-.118c.439 0 .866.039 1.254.039.292 0 1.175-.039 1.428-.039.146 0 .236 0 .236.107s-.107.135-.253.135a1.406 1.406 0 00-.562.157 2.03 2.03 0 00-.737.663 43.172 43.172 0 00-2.547 4.239 3.16 3.16 0 00-.2 1.333v1.125c0 .214 0 .77.045 1.333 0 .382.146.68.562.731a5.284 5.284 0 00.663.056c.152 0 .214.039.214.1s-.1.135-.275.135c-.843 0-1.687-.039-2.041-.039s-1.175.039-1.687.039c-.191 0-.3 0-.3-.135s.068-.1.214-.1a1.991 1.991 0 00.467-.056c.27-.051.388-.349.416-.731.039-.562.039-1.125.039-1.333z" class="cls-3" data-name="Path 67" transform="translate(-115.191 -40.32)"/><path id="Path_68" d="M286.193 92.713l-1.985.051c-.776 0-1.124.1-1.293.388a1.451 1.451 0 00-.225.467.143.143 0 01-.152.157c-.084 0-.118-.062-.118-.208s.253-1.428.281-1.535.079-.253.157-.253a2.88 2.88 0 00.562.157c.388.039.894.067 1.333.067h5.3a6.184 6.184 0 00.922-.067 2.7 2.7 0 01.36-.062c.09 0 .107.079.107.276 0 .281-.039 1.2-.039 1.546 0 .135-.045.214-.124.214s-.135-.067-.146-.264V93.5c-.028-.349-.388-.72-1.574-.748l-1.687-.039v5.465c0 1.226 0 2.249.068 2.851.039.371.124.669.523.72a5.283 5.283 0 00.675.056c.152 0 .214.039.214.1s-.1.135-.247.135c-.883 0-1.721-.039-2.1-.039s-1.125.039-1.687.039c-.169 0-.264-.039-.264-.135s.051-.1.214-.1a2.018 2.018 0 00.478-.056c.27-.051.349-.349.388-.731.067-.562.067-1.614.067-2.811z" class="cls-3" data-name="Path 68" transform="translate(-123.626 -40.176)"/><path id="Path_69" d="M303.57 95.918v-2.811c0-.41-.129-.669-.562-.759a2.615 2.615 0 00-.517-.039c-.146 0-.231-.028-.231-.124s.1-.118.3-.118h1.08c.343 0 .652.028.838.028h3.334a2.346 2.346 0 00.562-.079 1 1 0 01.214-.056c.062 0 .079.056.079.118a8.658 8.658 0 00-.107.871c0 .129-.039.72-.067.877a.135.135 0 01-.135.146c-.1 0-.118-.067-.118-.186a1.427 1.427 0 00-.079-.484c-.1-.236-.225-.4-.894-.478-.23 0-1.625-.051-1.895-.051-.062 0-.1.039-.1.129v3.374c0 .1 0 .146.1.146h2.137a.811.811 0 00.635-.2c.118-.135.146-.174.214-.174s.1 0 .1.107-.056.292-.107.973c0 .27-.056.8-.056.894s0 .253-.118.253a.1.1 0 01-.118-.118 2.721 2.721 0 00-.056-.484c-.062-.264-.253-.461-.748-.517-.247-.028-1.569-.039-1.889-.039-.067 0-.084.051-.084.135v3.115c.034.922.242 1.125 1.6 1.125a3.435 3.435 0 001.254-.157c.349-.163.506-.439.6-.99 0-.146.051-.2.146-.2s.107.107.107.236a10.409 10.409 0 01-.174 1.484c-.1.343-.214.343-.72.343-1 0-1.732 0-2.305-.039s-1.018-.067-1.423-.067h-1.676c-.174 0-.27-.039-.27-.135s.056-.1.214-.1a2.114 2.114 0 00.484-.056c.264-.056.332-.349.382-.731.068-.562.068-1.614.068-2.811z" class="cls-3" data-name="Path 69" transform="translate(-132.311 -40.254)"/><path id="Path_70" d="M320.422 100.776a5.28 5.28 0 01-.1-7.585 5.867 5.867 0 014.211-1.411 12.593 12.593 0 011.934.135c.506.067.933.186 1.333.225.146 0 .2.079.2.157s-.039.27-.062.737 0 1.17-.039 1.439-.039.3-.163.3-.135-.107-.135-.292a1.906 1.906 0 00-.517-1.226 3.97 3.97 0 00-2.7-.827 3.486 3.486 0 00-2.508.827 4.983 4.983 0 002.974 8.2c1.186 0 1.906-.135 2.435-.748a2.158 2.158 0 00.455-.877c.039-.214.068-.27.174-.27s.118.1.118.2a12.494 12.494 0 01-.292 1.771.478.478 0 01-.343.388 7.725 7.725 0 01-2.4.3 6.64 6.64 0 01-4.571-1.451" class="cls-3" data-name="Path 70" transform="translate(-139.536 -40.175)"/><path id="Path_71" d="M342.689 96.533h.067c.45-.495 2.4-2.48 2.783-2.929s.669-.776.669-1-.056-.242-.186-.27-.174-.051-.174-.135.067-.118.214-.118c.276 0 1.012.039 1.372.039s1.125-.039 1.557-.039c.135 0 .231 0 .231.118s-.067.124-.2.124a2.553 2.553 0 00-.776.146 4.223 4.223 0 00-1.439 1c-.41.4-2.423 2.4-2.873 2.879.478.624 3.092 3.435 3.61 3.936a6.275 6.275 0 001.906 1.439 2.378 2.378 0 00.827.2c.09 0 .174 0 .174.1s-.067.135-.321.135h-2.08a2.637 2.637 0 01-1.653-.872c-.562-.517-3.21-3.6-3.492-3.981l-.146-.2h-.068v1.214c0 1.226 0 2.249.039 2.851.028.371.146.669.478.72a5.471 5.471 0 00.658.056c.1 0 .174.039.174.1s-.107.135-.259.135c-.742 0-1.586-.039-1.917-.039s-1.124.039-1.687.039c-.169 0-.264-.039-.264-.135s.051-.1.214-.1a2.06 2.06 0 00.478-.056c.27-.051.332-.349.388-.731.067-.562.067-1.614.067-2.811v-2.377c0-2.03 0-2.4-.028-2.811s-.135-.663-.562-.759a2.613 2.613 0 00-.517-.039c-.146 0-.231-.028-.231-.124s.1-.118.3-.118c.7 0 1.541.039 1.861.039s1.164-.039 1.614-.039c.186 0 .281 0 .281.118s-.079.124-.186.124a1.906 1.906 0 00-.377.039c-.354.067-.461.292-.489.759s-.028.8-.028 2.811z" class="cls-3" data-name="Path 71" transform="translate(-148.709 -40.307)"/><path id="Path_72" d="M361.187 96v-2.81c0-.41-.163-.68-.455-.748a1.917 1.917 0 00-.478-.051c-.135 0-.214-.028-.214-.135s.107-.107.321-.107c.506 0 1.344.039 1.732.039s1.125-.039 1.625-.039c.174 0 .281 0 .281.107s-.079.135-.214.135a2.081 2.081 0 00-.4.039c-.36.067-.467.292-.495.759s-.028.8-.028 2.811v2.345c0 1.293 0 2.345.056 2.918.039.36.135.6.534.652a5.285 5.285 0 00.68.056c.146 0 .208.039.208.1s-.1.135-.247.135c-.883 0-1.72-.039-2.08-.039s-1.125.039-1.687.039c-.174 0-.264-.039-.264-.135s.051-.1.208-.1a2.114 2.114 0 00.484-.056c.264-.056.343-.281.382-.669.068-.562.068-1.608.068-2.9z" class="cls-3" data-name="Path 72" transform="translate(-157.603 -40.338)"/><path id="Path_73" d="M127.225 124.9a1.928 1.928 0 00-.489-.945 1.164 1.164 0 00-.562-.124c-.135 0-.214 0-.214-.118s.107-.118.292-.118c.692 0 1.428.039 1.546.039s.708-.039 1.479-.039c.186 0 .281.039.281.118s-.107.118-.242.118a.669.669 0 00-.332.056c-.118.056-.146.146-.146.292a8.909 8.909 0 00.292 1.226c.225.883 1.468 4.92 1.687 5.668h.039l2.586-6.944c.129-.377.225-.484.332-.484s.214.2.382.63l2.778 6.7h.039c.236-.894 1.3-4.414 1.771-5.971a2.767 2.767 0 00.135-.77c0-.214-.124-.4-.641-.4-.135 0-.225-.039-.225-.118s.107-.118.3-.118c.708 0 1.271.039 1.389.039s.663-.039 1.124-.039c.146 0 .242.028.242.107s-.067.129-.186.129a1.534 1.534 0 00-.467.067c-.321.124-.467.658-.748 1.417-.613 1.687-2.013 5.915-2.665 7.917-.146.467-.214.624-.388.624s-.208-.157-.41-.652l-2.772-6.68h-.028c-.253.68-2.024 5.4-2.6 6.623-.253.562-.321.708-.478.708s-.191-.146-.309-.495z" class="cls-3" data-name="Path 73" transform="translate(-55.138 -54.104)"/><path id="Path_74" d="M167.321 128.047h.067c.45-.489 2.4-2.474 2.811-2.929s.669-.77.669-1a.231.231 0 00-.186-.264c-.124 0-.174-.056-.174-.135s.067-.118.214-.118c.281 0 1.012.039 1.372.039s1.125-.039 1.557-.039c.135 0 .225.028.225.118s-.062.118-.2.118a2.541 2.541 0 00-.77.152 4.121 4.121 0 00-1.439 1c-.416.394-2.429 2.4-2.884 2.873.484.63 3.092 3.441 3.615 3.936a6.37 6.37 0 001.906 1.439 2.328 2.328 0 00.827.2c.09 0 .169 0 .169.107s-.062.135-.315.135h-1.164a8.756 8.756 0 01-.916-.028 2.626 2.626 0 01-1.653-.866c-.562-.517-3.21-3.6-3.492-3.981l-.146-.2h-.067v1.209c0 1.226 0 2.283.039 2.856 0 .371.146.663.478.72a5.436 5.436 0 00.658.051c.1 0 .169.045.169.107s-.107.135-.253.135c-.742 0-1.586-.039-1.917-.039s-1.125.039-1.687.039c-.169 0-.264-.039-.264-.135s.051-.107.214-.107a2.1 2.1 0 00.478-.051c.264-.056.332-.349.388-.737.067-.562.067-1.614.067-2.839v-2.345c0-2.024 0-2.4-.028-2.811s-.135-.669-.562-.759a2.558 2.558 0 00-.517-.045c-.146 0-.231 0-.231-.118s.1-.118.3-.118c.7 0 1.541.039 1.861.039s1.164-.039 1.614-.039c.186 0 .281.028.281.118s-.079.118-.186.118a1.952 1.952 0 00-.377.045c-.36.067-.461.292-.489.759s0 .8 0 2.811z" class="cls-3" data-name="Path 74" transform="translate(-71.955 -54.104)"/><path id="Path_75" d="M185.668 127.462c0-2.024 0-2.4-.028-2.811s-.135-.669-.562-.759a2.574 2.574 0 00-.523-.045c-.146 0-.225 0-.225-.118s.1-.118.292-.118c.708 0 1.546.039 1.827.039.455 0 1.467-.039 1.878-.039a4.239 4.239 0 012.451.562 2.3 2.3 0 01.911 1.822c0 .99-.416 1.895-1.76 2.986 1.186 1.5 2.1 2.682 2.89 3.509a2.665 2.665 0 001.5.905 1.938 1.938 0 00.371.039c.107 0 .157.045.157.107s-.09.135-.253.135h-1.265a2.7 2.7 0 01-1.423-.253 6.531 6.531 0 01-1.827-1.962c-.534-.731-1.125-1.636-1.321-1.839a.275.275 0 00-.236-.09l-1.164-.028c-.067 0-.107.028-.107.107v.186c0 1.237 0 2.294.067 2.851.039.388.124.68.517.737.2 0 .495.051.658.051s.157.045.157.107-.09.135-.264.135c-.776 0-1.76-.039-1.962-.039s-1.091.039-1.625.039c-.174 0-.264-.039-.264-.135s.051-.107.214-.107a2.478 2.478 0 00.478-.051c.264-.056.332-.349.388-.737.067-.562.067-1.614.067-2.839zm1.569 1.051c0 .152.028.2.124.242a3.418 3.418 0 001.012.135 1.355 1.355 0 00.945-.225 2.367 2.367 0 00.787-2 2.136 2.136 0 00-2.041-2.44 2.869 2.869 0 00-.7.056c-.1 0-.124.079-.124.186z" class="cls-3" data-name="Path 75" transform="translate(-80.688 -54.104)"/><path id="Path_76" d="M204.572 129.959c-.067 0-.09 0-.118.107l-.72 1.906a2.541 2.541 0 00-.2.815c0 .236.124.41.562.41h.2c.157 0 .2 0 .2.107s-.079.135-.225.135c-.427 0-1-.039-1.411-.039-.152 0-.883.039-1.574.039-.174 0-.253-.028-.253-.135s.056-.107.157-.107h.416c.613-.084.866-.562 1.125-1.2l3.345-8.406c.163-.382.242-.529.377-.529s.2.118.332.427c.321.731 2.451 6.185 3.306 8.192.506 1.2.894 1.389 1.169 1.456a2.976 2.976 0 00.562.051c.107 0 .174 0 .174.107s-.124.135-.613.135-1.456 0-2.519-.028c-.242 0-.4 0-.4-.107s.051-.107.186-.118a.219.219 0 00.118-.309l-1.063-2.811a.129.129 0 00-.135-.1zm2.721-.663c.067 0 .079-.039.067-.079l-1.2-3.295c0-.051 0-.118-.067-.118s-.062.067-.079.118l-1.226 3.289c0 .056 0 .1.056.1z" class="cls-3" data-name="Path 76" transform="translate(-87.999 -53.868)"/><path id="Path_77" d="M225.387 128.047h.067c.455-.489 2.4-2.474 2.783-2.929s.669-.77.669-1a.231.231 0 00-.186-.264c-.124 0-.174-.056-.174-.135s.067-.118.214-.118c.281 0 1.012.039 1.372.039s1.124-.039 1.557-.039c.135 0 .231.028.231.118s-.067.118-.2.118a2.575 2.575 0 00-.776.152 4.161 4.161 0 00-1.434 1c-.416.394-2.429 2.4-2.879 2.873.478.63 3.092 3.441 3.61 3.936a6.37 6.37 0 001.906 1.439 2.328 2.328 0 00.827.2c.09 0 .174 0 .174.107s-.067.135-.32.135h-1.158a8.818 8.818 0 01-.922-.028 2.626 2.626 0 01-1.653-.866c-.562-.517-3.211-3.6-3.492-3.981l-.146-.2h-.067v1.209c0 1.226 0 2.283.039 2.856.028.371.146.663.484.72a5.262 5.262 0 00.652.051c.1 0 .174.045.174.107s-.107.135-.259.135c-.742 0-1.586-.039-1.917-.039s-1.125.039-1.687.039c-.174 0-.27-.039-.27-.135s.051-.107.214-.107a2.1 2.1 0 00.517-.051c.27-.056.332-.349.388-.737.067-.562.067-1.614.067-2.839v-5.156c0-.416-.135-.669-.562-.759a2.558 2.558 0 00-.517-.045c-.146 0-.23 0-.23-.118s.1-.118.3-.118c.7 0 1.546.039 1.861.039s1.164-.039 1.614-.039c.186 0 .281.028.281.118s-.079.118-.186.118a1.849 1.849 0 00-.371.045c-.365.067-.467.292-.495.759s0 .8 0 2.811z" class="cls-3" data-name="Path 77" transform="translate(-97.388 -54.104)"/><path id="Path_78" d="M242.23 128.493a5.13 5.13 0 015.5-5.223c3.323 0 5.386 1.929 5.386 4.982a5.268 5.268 0 01-5.516 5.465 5.078 5.078 0 01-5.375-5.223m9 .253c0-2.986-1.721-4.841-3.908-4.841-1.529 0-3.278.855-3.278 4.172 0 2.772 1.535 4.976 4.093 4.976.933 0 3.092-.455 3.092-4.307" class="cls-3" data-name="Path 78" transform="translate(-106.033 -53.96)"/><path id="Path_79" d="M265.5 124.9a1.929 1.929 0 00-.489-.945 1.164 1.164 0 00-.534-.124c-.135 0-.214 0-.214-.118s.107-.118.292-.118c.692 0 1.428.039 1.546.039s.708-.039 1.479-.039c.186 0 .281.039.281.118s-.107.118-.242.118a.669.669 0 00-.332.056c-.118.056-.146.146-.146.292a8.9 8.9 0 00.292 1.226c.225.883 1.467 4.92 1.687 5.668h.056l2.581-6.944c.135-.377.231-.484.337-.484s.214.2.382.63l2.772 6.7h.045c.236-.894 1.3-4.414 1.771-5.971a2.766 2.766 0 00.135-.77c0-.214-.124-.4-.641-.4-.135 0-.225-.039-.225-.118s.107-.118.3-.118c.708 0 1.265.039 1.389.039s.663-.039 1.125-.039c.152 0 .242.028.242.107s-.067.129-.186.129a1.534 1.534 0 00-.467.067c-.32.124-.467.658-.748 1.417-.613 1.687-2.013 5.915-2.665 7.917-.146.467-.214.624-.388.624s-.214-.157-.41-.652l-2.772-6.68h-.028c-.253.68-2.024 5.4-2.6 6.623-.259.562-.32.708-.484.708s-.186-.146-.3-.495z" class="cls-3" data-name="Path 79" transform="translate(-115.677 -54.104)"/><path id="Path_80" d="M295.165 127.47c0-2.024 0-2.4-.028-2.811s-.157-.68-.455-.748a1.89 1.89 0 00-.478-.056c-.135 0-.214 0-.214-.129s.107-.107.321-.107c.506 0 1.349.039 1.732.039s1.125-.039 1.625-.039c.174 0 .281.028.281.107s-.079.129-.214.129a2.252 2.252 0 00-.4.045c-.36.067-.467.292-.495.759s0 .8 0 2.811v2.345c0 1.3 0 2.345.051 2.924.039.36.135.6.534.652a6.554 6.554 0 00.68.051c.146 0 .214.045.214.107s-.107.135-.253.135c-.883 0-1.721-.039-2.08-.039s-1.125.039-1.687.039c-.174 0-.264-.039-.264-.135s.051-.107.214-.107a2.479 2.479 0 00.478-.051c.27-.056.349-.281.388-.669.067-.562.067-1.608.067-2.907z" class="cls-3" data-name="Path 80" transform="translate(-128.691 -54.112)"/><path id="Path_81" d="M307.528 127.366c0-2.024 0-2.4-.028-2.811s-.129-.669-.562-.759a2.614 2.614 0 00-.523-.045c-.146 0-.225 0-.225-.118s.09-.118.292-.118h5.252a5.064 5.064 0 00.562-.084 1.475 1.475 0 01.214-.051c.067 0 .079.051.079.118a8.383 8.383 0 00-.107.866c0 .135-.039.72-.068.883a.135.135 0 01-.135.146c-.1 0-.118-.067-.118-.186a1.429 1.429 0 00-.079-.484c-.1-.236-.225-.4-.894-.478-.225 0-1.625-.056-1.895-.056-.062 0-.09.045-.09.135v3.376c0 .1 0 .146.09.146h2.137a.939.939 0 00.641-.2c.09-.107.146-.174.208-.174s.1.028.1.107-.051.292-.107.973c0 .264-.051.8-.051.894s0 .253-.124.253a.107.107 0 01-.118-.124 2.724 2.724 0 00-.056-.478c-.062-.264-.253-.467-.742-.517-.253-.028-1.574-.039-1.895-.039-.068 0-.079.051-.079.129v3.121c.028.916.242 1.125 1.6 1.125a3.435 3.435 0 001.254-.157c.349-.163.506-.444.6-.99 0-.146.051-.2.146-.2s.107.107.107.236a10.243 10.243 0 01-.174 1.479c-.09.349-.214.349-.72.349-1 0-1.732-.028-2.305-.039s-.99-.039-1.383-.039h-.765c-.32 0-.652.028-.917.028-.174 0-.27-.039-.27-.135s.056-.107.214-.107a2.547 2.547 0 00.484-.051c.264-.056.332-.349.388-.737.062-.562.062-1.614.062-2.839z" class="cls-3" data-name="Path 81" transform="translate(-134.031 -54.008)"/></g></svg>